<svg version="1.1" viewBox="0 0 1280 853" width="1280" height="853" xmlns="http://www.w3.org/2000/svg">
    <path transform="translate(0)" d="m0 0h1280v853h-1280z" fill="#FDFDFD"/>
    <path transform="translate(470,179)" d="m0 0h16l-6 7-7 7-7 8-5 5-29 6-27 8-24 10-16 9-14 10-11 9-14 12-8 8-9 11-12 15-11 18-8 15-8 21-7 23-4 20-2 9-11 11-8 7-6 6h-2v-12l2-22 5-26 8-26 10-24 10-19 12-18 10-13 12-14 19-19 14-11 17-12 22-12 20-9 27-9 22-5 20-3z"/>
    <path transform="translate(486,350)" d="m0 0 4 2 16 12 14 10 1 2v88l-4 15-7 14-9 11-10 8-10 5-11 3h-18l-15-4-14-7-14-11-7-7-7-9 1-2 12 7 16 5 16 2h9l16-4 9-6 7-8 4-9z"/>
    <path transform="translate(882,365)" d="m0 0 6 2 11 7 15 15 8 13 6 16 2 11v20l-4 17-8 16-8 11-9 9-14 9-14 6-14 3h-21l-16-4-12-5-12-8-10-9-6-9 5 2 15 5 12 2h15l15-3 15-6 13-9 10-10 9-14 5-12 3-14v-21l-4-16-8-16z"/>
    <path transform="translate(717,350)" d="m0 0 9 6 21 16 4 3v145h-18l-24-24 1-2h6z"/>
    <path transform="translate(657,350)" d="m0 0 11 7 14 11 9 7v144l-5-2-18-14-11-8z"/>
    <path transform="translate(1067,350)" d="m0 0 9 6 13 10 12 9v144l-5-2-21-16-8-6z"/>
    <path transform="translate(417,655)" d="m0 0 27 6 24 3h38l23-3 21-5 6-1 30 15-4 3-19 7-24 6-18 3-22 2h-24l-30-3-24-5-23-7-11-5 4-3z"/>
    <path transform="translate(555,376)" d="m0 0 5 5 11 14 14 17 4 6v102h-18l-24-24 2-2h6z"/>
    <path transform="translate(964,376)" d="m0 0 5 4 10 13 13 16 6 8v103h-17l-24-24 1-2 6 1z"/>
    <path transform="translate(827,357)" d="m0 0h8l15 3 12 5 11 8 7 7 3 4-1 2-15-5h-24l-15 5-12 7-10 10-8 13-4 12-1 6v18l3 12 5 10-1 2-10-7-9-9-7-11-5-14-1-5v-20l5-16 6-10 9-10 7-6 16-8z"/>
    <path transform="translate(393,350)" d="m0 0 9 6 18 14 7 5 1 99 5 9 2 3-12-3-16-8-8-7-4-5-2-5-1-103z"/>
    <path transform="translate(469,145)" d="m0 0h35l22 2 28 5 25 7 20 8 1 2-18 9-7-1-21-6-25-5-25-3h-35l-25 3-25 5-24 7h-5l-17-9 3-3 18-7 25-7 28-5z"/>
    <path transform="translate(548,351)" d="m0 0 5 1 37 16 16 7 13 15 9 11 11 13 10 13v49l-4-2-11-14-9-11-11-14-13-16-8-10-11-14-13-16-11-14-10-13z"/>
    <path transform="translate(957,350)" d="m0 0 17 7 42 18 14 17 12 14 16 20v51l-5-5-11-14-13-16-11-14-9-11-11-14-13-16-8-10-11-14-9-11z"/>
    <path transform="translate(265,217)" d="m0 0 5 5-11 11-9 11-13 17-12 19-13 24-10 24-7 21-6 24-4 25-2 22v28l3 32 5 26 7 24 8 22 12 25 10 18 13 19 11 14 9 10 7 8 14 14 11 9 14 11 21 14 18 10 21 10 1 2-2 4-10-3-23-12-18-11-15-11-13-10-15-14-4-3v-2l-3-1-7-8-11-12-13-17-10-15-9-15-10-19-11-27-7-22-6-26-3-20-2-24v-27l3-32 6-30 7-23 8-22 14-29 13-21 10-14 10-13 11-12z"/>
    <path transform="translate(669,637)" d="m0 0 13 1 9 2-6 7-11 10-17 13-15 10-15 9-17 9-19 8-27 9-21 5-25 4-11 1h-21l4-6 11-12 21-2 22-4 24-6 22-8 20-9 18-10 15-10 12-9 11-9z"/>
    <path transform="translate(196,435)" d="m0 0 8 6 10 8 3 28 5 24 7 24 8 20 8 16 8 15 8 12 10 14 9 11 1 3h2v12l-1 11-4-2-11-11-11-14-10-14-10-16-10-18-11-25-9-27-6-27-3-21-1-14z"/>
    <path transform="translate(475,220)" d="m0 0h23l20 2 20 4 20 6 12 5-1 2-6-1-21-7-17-4-26-3h-25l-19 2-20 4-20 6-19 8-21 11-16 11-13 11-12 11-10 11-12 16-9 15-10 19-9 25-5 20-3 22v38l4 27 6 21 10 25 11 20 12 17 11 13 8 9 8 7 12 10 13 9 17 10 17 8 27 9 24 5 30 3v3l-20-1-21-3-21-5-24-9-16-8-14-8-14-10-11-9-15-14-12-14-11-15-10-17-11-23-7-21-5-23-2-17v-37l3-22 6-24 8-21 8-16 6-11 9-13 10-13 14-15 13-12 19-14 19-11 19-9 21-7 21-5 14-2z"/>
    <path transform="translate(486,125)" d="m0 0h21l20 2 24 4 20 5 27 9 23 10 23 12 24 16 13 10 14 12 5 4v2h2v2h2l-1 4-3 2-9-9-22-18-17-12-24-14-21-10-24-9-24-7-25-5-27-3-20-1-1-1z"/>
    <path transform="translate(766,554)" d="m0 0 6 1-3 9-11 22-11 18-12 17-8 10-12 14-23 23-11 9-20 15-18 11-22 12-14 6-3-3v-3l29-14 20-12 14-10 14-11 3-1v-2l11-9 16-16 9-11 12-15 12-18 12-21z"/>
    <path transform="translate(606,554)" d="m0 0 3 1-6 7-13 11-15 10-17 9-18 7-25 6-18 2h-22l-18-2-21-5-21-8-19-10-17-12-13-12 1-3 7 6 14 11 16 10 16 8 20 7 18 4 17 2h23l17-2 21-5 19-7 21-11 17-12z"/>
    <path transform="translate(471,263)" d="m0 0h30l21 3 18 5 16 6 16 8 11 7 12 9 10 9 3 4h-4l-7-7-16-12-17-10-18-8-20-6-16-3-9-1h-29l-21 3-21 6-15 6-17 9-17 12-10 9h-3v-3l11-9 12-9 17-10 16-7 18-6 20-4z"/>
</svg>